<svg width="35" height="31" viewBox="0 0 35 31" fill="none" xmlns="http://www.w3.org/2000/svg">
<g id="Frame">
<g id="Group">
<path id="Vector" d="M22.4997 26.3443C22.6279 26.3657 22.7591 26.3617 22.8857 26.3324C23.0124 26.3031 23.132 26.2491 23.2378 26.1735C23.3435 26.098 23.4333 26.0023 23.5021 25.8919C23.5708 25.7816 23.6171 25.6588 23.6383 25.5305L24.628 19.5934C24.6712 19.3345 24.6098 19.0691 24.4573 18.8555C24.3048 18.6418 24.0737 18.4975 23.8148 18.4543C23.5559 18.4111 23.2904 18.4725 23.0768 18.625C22.8632 18.7775 22.7189 19.0087 22.6756 19.2676L21.6859 25.2046C21.6645 25.3329 21.6685 25.4641 21.6978 25.5908C21.7271 25.7176 21.781 25.8373 21.8566 25.9431C21.9322 26.049 22.0279 26.1389 22.1382 26.2077C22.2486 26.2765 22.3714 26.3229 22.4997 26.3443Z" fill="black"/>
<path id="Vector_2" d="M10.7376 25.5336C10.7834 25.7899 10.9284 26.0179 11.1412 26.168C11.354 26.3182 11.6174 26.3784 11.8743 26.3356C12.1312 26.2929 12.3608 26.1506 12.5135 25.9396C12.6662 25.7287 12.7296 25.4661 12.69 25.2087L11.7003 19.2716C11.657 19.0127 11.5128 18.7815 11.2991 18.629C11.0855 18.4765 10.82 18.4151 10.5611 18.4583C10.3022 18.5016 10.0711 18.6458 9.91859 18.8595C9.76608 19.0731 9.70467 19.3386 9.74788 19.5975L10.7376 25.5336Z" fill="black"/>
<path id="Vector_3" d="M33.0506 10.5277H29.5669L21.9498 1.00292C21.7854 0.79957 21.5472 0.669612 21.2872 0.64145C21.0273 0.613289 20.7667 0.689216 20.5626 0.852636C20.3584 1.01606 20.2272 1.25368 20.1977 1.51358C20.1681 1.77348 20.2426 2.03451 20.4049 2.23963L27.0335 10.5277H7.27641L13.9051 2.23863C13.9951 2.1385 14.0638 2.02104 14.1068 1.89344C14.1499 1.76584 14.1665 1.63079 14.1556 1.49656C14.1447 1.36232 14.1065 1.23173 14.0434 1.11276C13.9803 0.993798 13.8936 0.88897 13.7886 0.804696C13.6836 0.720422 13.5625 0.658474 13.4327 0.622645C13.3029 0.586815 13.1672 0.577856 13.0339 0.59632C12.9005 0.614783 12.7723 0.66028 12.6572 0.730022C12.542 0.799765 12.4423 0.892287 12.3641 1.00192L4.74306 10.5277H1.26133C0.998934 10.5277 0.747288 10.632 0.561748 10.8176C0.376208 11.0032 0.271973 11.2549 0.271973 11.5174L0.271973 15.4765C0.271973 15.6065 0.297563 15.7352 0.347283 15.8553C0.397003 15.9754 0.469878 16.0845 0.561748 16.1764C0.653618 16.2683 0.762684 16.3412 0.882718 16.3909C1.00275 16.4407 1.1314 16.4663 1.26133 16.4663H2.49352L6.24508 29.6032C6.30415 29.81 6.42896 29.9919 6.60063 30.1215C6.77229 30.251 6.98145 30.321 7.19646 30.321H27.1135C27.3285 30.321 27.5376 30.251 27.7093 30.1215C27.881 29.9919 28.0058 29.81 28.0649 29.6032L31.8164 16.4663H33.0506C33.1805 16.4663 33.3092 16.4407 33.4292 16.3909C33.5492 16.3412 33.6583 16.2683 33.7502 16.1764C33.8421 16.0845 33.9149 15.9754 33.9647 15.8553C34.0144 15.7352 34.04 15.6065 34.04 15.4765V11.5174C34.04 11.3875 34.0144 11.2588 33.9647 11.1387C33.9149 11.0186 33.8421 10.9095 33.7502 10.8176C33.6583 10.7257 33.5492 10.6528 33.4292 10.603C33.3092 10.5533 33.1805 10.5277 33.0506 10.5277ZM26.367 28.3405H7.94297L4.55118 16.4643H29.7588L26.367 28.3405ZM32.0632 14.4857H2.25068V12.5062H32.0593L32.0632 14.4857Z" fill="black"/>
<path id="Vector_4" d="M17.1552 26.3603C17.2852 26.3603 17.4139 26.3346 17.5339 26.2849C17.654 26.2352 17.7631 26.1623 17.855 26.0704C17.9469 25.9785 18.0198 25.8694 18.0696 25.7493C18.1193 25.6292 18.1449 25.5005 18.1449 25.3706V19.4335C18.1449 19.171 18.0406 18.9193 17.855 18.7337C17.6694 18.5481 17.4177 18.4438 17.1552 18.4438C16.8927 18.4438 16.641 18.5481 16.4554 18.7337C16.2698 18.9193 16.1655 19.171 16.1655 19.4335V25.3706C16.1655 25.633 16.2698 25.8848 16.4554 26.0704C16.641 26.256 16.8927 26.3603 17.1552 26.3603Z" fill="black"/>
</g>
</g>
</svg>
