<svg width="49" height="72" viewBox="0 0 49 72" fill="none" xmlns="http://www.w3.org/2000/svg">
<g id="Frame">
<path id="Vector" d="M3.84419 71.0916C3.76191 71.0614 3.6852 71.0178 3.61719 70.9626L3.69119 70.8086C3.75032 70.8592 3.81806 70.8988 3.89119 70.9256C3.97394 70.9552 4.06131 70.9697 4.14919 70.9686C4.23669 70.9742 4.32402 70.9552 4.40119 70.9136C4.42857 70.8971 4.451 70.8735 4.46613 70.8453C4.48127 70.8172 4.48854 70.7855 4.48719 70.7536C4.48821 70.7322 4.48494 70.7108 4.47755 70.6907C4.47016 70.6706 4.45882 70.6522 4.44419 70.6366C4.40838 70.6083 4.36905 70.5847 4.32719 70.5666L4.13719 70.5176C4.04888 70.499 3.9625 70.4722 3.87919 70.4376C3.81786 70.4137 3.76304 70.3756 3.71919 70.3266C3.68031 70.2621 3.6671 70.1853 3.68219 70.1116C3.68048 70.0379 3.70209 69.9655 3.74393 69.9048C3.78577 69.8441 3.8457 69.7982 3.91519 69.7736C4.00839 69.7341 4.10903 69.7153 4.21019 69.7186C4.28993 69.7095 4.37044 69.7095 4.45019 69.7186C4.5227 69.7345 4.59091 69.7659 4.65019 69.8106L4.58919 69.9706C4.53161 69.9345 4.46981 69.9056 4.40519 69.8846C4.33881 69.8758 4.27157 69.8758 4.20519 69.8846C4.11708 69.8804 4.02962 69.9015 3.95319 69.9456C3.92663 69.9629 3.90485 69.9867 3.88983 70.0146C3.87481 70.0426 3.86702 70.0738 3.86719 70.1056C3.86695 70.1274 3.87117 70.149 3.8796 70.1691C3.88802 70.1892 3.90048 70.2074 3.91619 70.2226C3.94964 70.2536 3.98962 70.2769 4.03319 70.2906L4.22319 70.3456C4.30881 70.3643 4.39302 70.389 4.47519 70.4196C4.53907 70.4447 4.59599 70.4849 4.64119 70.5366C4.68735 70.5928 4.71152 70.6638 4.70919 70.7366C4.7101 70.8079 4.68878 70.8778 4.64819 70.9366C4.60457 71.0006 4.54247 71.0497 4.47019 71.0776C4.37648 71.1148 4.27589 71.1315 4.17519 71.1266C4.06092 71.131 3.94669 71.1165 3.83719 71.0836L3.84419 71.0916Z" fill="#231F20"/>
<path id="Vector_2" d="M6.2072 71.0495C6.09675 70.99 6.00526 70.9006 5.9432 70.7915C5.88059 70.6813 5.84881 70.5563 5.8512 70.4295C5.84972 70.3029 5.88144 70.1781 5.9432 70.0675C6.00714 69.9615 6.09829 69.8745 6.2072 69.8155C6.32211 69.7529 6.45134 69.7212 6.5822 69.7235C6.68325 69.7216 6.78363 69.7403 6.8772 69.7785C6.96625 69.813 7.04603 69.8678 7.1102 69.9385L6.9812 70.0615C6.93102 70.0082 6.86994 69.9663 6.80213 69.9387C6.73432 69.9111 6.66135 69.8984 6.5882 69.9015C6.49171 69.8985 6.39625 69.922 6.3122 69.9695C6.22875 70.0124 6.15934 70.0784 6.1122 70.1595C6.06443 70.2413 6.04084 70.3349 6.0442 70.4295C6.04034 70.5242 6.06396 70.618 6.1122 70.6995C6.15823 70.784 6.22767 70.8535 6.3122 70.8995C6.39761 70.9435 6.49215 70.9668 6.5882 70.9675C6.6617 70.9691 6.73471 70.9551 6.80243 70.9265C6.87016 70.8979 6.93108 70.8553 6.9812 70.8015L7.1102 70.9245C7.04789 70.9973 6.96754 71.0525 6.8772 71.0845C6.78331 71.1216 6.68315 71.1403 6.5822 71.1395C6.45216 71.1409 6.32365 71.1114 6.2072 71.0535V71.0495Z" fill="#231F20"/>
<path id="Vector_3" d="M8.51561 70.9815C8.46068 70.9199 8.41873 70.8479 8.39227 70.7697C8.36581 70.6915 8.35539 70.6088 8.36161 70.5265V69.7345H8.56161V70.5145C8.56161 70.8145 8.69061 70.9625 8.95461 70.9625C9.00791 70.9657 9.06126 70.9574 9.1111 70.9382C9.16094 70.9191 9.20612 70.8895 9.24361 70.8515C9.31816 70.7554 9.35385 70.6347 9.34361 70.5135V69.7335H9.54361V70.5255C9.54904 70.6082 9.53766 70.6912 9.51016 70.7694C9.48266 70.8476 9.43962 70.9194 9.38361 70.9805C9.32661 71.0347 9.25891 71.0764 9.18487 71.1029C9.11083 71.1294 9.03206 71.1402 8.95361 71.1345C8.87523 71.1395 8.79667 71.1284 8.72273 71.1019C8.64879 71.0754 8.58103 71.0341 8.52361 70.9805L8.51561 70.9815Z" fill="#231F20"/>
<path id="Vector_4" d="M12.0482 70.5275C12.0998 70.5892 12.1263 70.6681 12.1222 70.7485C12.1247 70.8028 12.113 70.8568 12.0882 70.9052C12.0635 70.9536 12.0266 70.9947 11.9812 71.0245C11.8653 71.1014 11.7267 71.1366 11.5882 71.1245H10.9302V69.7355H11.5442C11.6723 69.7302 11.7989 69.7652 11.9062 69.8355C11.9496 69.864 11.9849 69.9034 12.0086 69.9497C12.0322 69.9959 12.0435 70.0476 12.0412 70.0995C12.0435 70.1652 12.0242 70.2299 11.9862 70.2835C11.9551 70.3375 11.9079 70.3805 11.8512 70.4065C11.9302 70.4228 12.001 70.4663 12.0512 70.5295L12.0482 70.5275ZM11.1302 69.9135V70.3555H11.5302C11.6124 70.3614 11.6943 70.3399 11.7632 70.2945C11.7894 70.2773 11.8107 70.2534 11.8247 70.2253C11.8388 70.1972 11.8451 70.1659 11.8432 70.1345C11.8456 70.1023 11.8395 70.0699 11.8255 70.0408C11.8114 70.0116 11.7899 69.9867 11.7632 69.9685C11.6924 69.9282 11.6115 69.9091 11.5302 69.9135H11.1302ZM11.8362 70.9205C11.8647 70.9008 11.8876 70.8741 11.9027 70.8429C11.9178 70.8117 11.9245 70.7771 11.9222 70.7425C11.9222 70.5885 11.8112 70.5155 11.5842 70.5155H11.1302V70.9765H11.5852C11.6739 70.9783 11.7613 70.9547 11.8372 70.9085L11.8362 70.9205Z" fill="#231F20"/>
<path id="Vector_5" d="M14.2947 70.7786H13.5577L13.4107 71.1226H13.2017L13.8157 69.7346H14.0157L14.6297 71.1226H14.4207L14.2947 70.7786ZM14.2267 70.6186L13.9267 69.9366L13.6317 70.6186H14.2267Z" fill="#231F20"/>
<path id="Vector_6" d="M17.3716 69.7355H17.9546C18.0893 69.7325 18.2226 69.7642 18.3416 69.8276C18.4514 69.8797 18.5433 69.9632 18.6056 70.0676C18.6698 70.1776 18.7037 70.3027 18.7037 70.43C18.7037 70.5574 18.6698 70.6825 18.6056 70.7925C18.5442 70.8991 18.4522 70.9848 18.3416 71.0386C18.2211 71.0972 18.0885 71.1266 17.9546 71.1245H17.3716V69.7355ZM17.9426 70.9635C18.0449 70.9644 18.146 70.9411 18.2376 70.8955C18.3219 70.8567 18.3919 70.7924 18.4376 70.7115C18.4886 70.6309 18.5144 70.5369 18.5116 70.4416C18.5131 70.3463 18.4875 70.2527 18.4376 70.1715C18.3919 70.0907 18.3219 70.0264 18.2376 69.9875C18.146 69.942 18.0449 69.9187 17.9426 69.9195H17.5676V70.9635H17.9426Z" fill="#231F20"/>
<path id="Vector_7" d="M19.9927 69.7346H20.1927V71.1226H19.9927V69.7346Z" fill="#231F20"/>
<path id="Vector_8" d="M22.7871 69.7355L22.1731 71.1236H21.9831L21.3691 69.7355H21.5781L22.1061 70.8535L22.6061 69.7115L22.7871 69.7355Z" fill="#231F20"/>
<path id="Vector_9" d="M23.9478 69.7346H24.1478V71.1226H23.9478V69.7346Z" fill="#231F20"/>
<path id="Vector_10" d="M26.7404 69.7346V71.1226H26.5804L25.7454 70.0906V71.1226H25.5454V69.7346H25.7114L26.5404 70.7726V69.7346H26.7404Z" fill="#231F20"/>
<path id="Vector_11" d="M29.1054 70.4225H29.2954V70.9625C29.2239 71.0198 29.1426 71.0636 29.0554 71.0915C28.9621 71.1217 28.8644 71.1362 28.7664 71.1345C28.6364 71.1352 28.508 71.1058 28.3914 71.0485C28.2809 70.989 28.1894 70.8996 28.1274 70.7905C28.0631 70.6805 28.0293 70.5554 28.0293 70.428C28.0293 70.3006 28.0631 70.1755 28.1274 70.0655C28.1895 69.9581 28.2811 69.8706 28.3914 69.8135C28.5084 69.7507 28.6396 69.719 28.7724 69.7215C28.875 69.7204 28.9768 69.7391 29.0724 69.7765C29.1614 69.811 29.2412 69.8658 29.3054 69.9365L29.1824 70.0595C29.0904 69.9766 28.9754 69.9234 28.8526 69.907C28.7298 69.8906 28.6049 69.9117 28.4944 69.9675C28.4107 70.0102 28.3412 70.0762 28.2944 70.1575C28.245 70.2389 28.2194 70.3324 28.2204 70.4275C28.2188 70.5227 28.2445 70.6164 28.2944 70.6975C28.3423 70.7806 28.4113 70.8495 28.4944 70.8975C28.5819 70.9425 28.6789 70.9659 28.7774 70.9655C28.8928 70.9681 29.0063 70.9361 29.1034 70.8735L29.1054 70.4225Z" fill="#231F20"/>
<path id="Vector_12" d="M32.4274 71.0495C32.317 70.99 32.2255 70.9006 32.1634 70.7915C32.1008 70.6813 32.069 70.5563 32.0714 70.4295C32.0699 70.3029 32.1017 70.1781 32.1634 70.0675C32.2274 69.9615 32.3185 69.8745 32.4274 69.8155C32.5425 69.7534 32.6716 69.7218 32.8024 69.7235C32.9035 69.7216 33.0038 69.7403 33.0974 69.7785C33.1874 69.8113 33.2676 69.8663 33.3304 69.9385L33.2014 70.0615C33.1523 70.0085 33.0923 69.9667 33.0255 69.9391C32.9587 69.9114 32.8867 69.8986 32.8144 69.9015C32.7157 69.8985 32.618 69.922 32.5314 69.9695C32.4491 70.014 32.3801 70.0796 32.3314 70.1595C32.2868 70.2425 32.2635 70.3353 32.2634 70.4295C32.261 70.524 32.2843 70.6173 32.3308 70.6995C32.3773 70.7818 32.4453 70.8499 32.5274 70.8965C32.6149 70.9415 32.712 70.9649 32.8104 70.9645C32.883 70.966 32.9551 70.952 33.0218 70.9233C33.0886 70.8947 33.1484 70.8521 33.1974 70.7985L33.3264 70.9215C33.2652 70.9955 33.1845 71.0509 33.0934 71.0815C32.9997 71.1192 32.8994 71.1379 32.7984 71.1365C32.6696 71.1369 32.5426 71.1071 32.4274 71.0495Z" fill="#231F20"/>
<path id="Vector_13" d="M35.6136 70.9546V71.1266H34.6006V69.7346H35.5776V69.9066H34.7976V70.3366H35.4916V70.5026H34.7976V70.9506L35.6136 70.9546Z" fill="#231F20"/>
<path id="Vector_14" d="M38.1071 69.7346V71.1226H37.9411L37.1121 70.0906V71.1226H36.9121V69.7346H37.0721L37.9011 70.7726V69.7346H38.1071Z" fill="#231F20"/>
<path id="Vector_15" d="M39.7824 69.9066H39.2974V69.7346H40.4394V69.9066H39.9664V71.1346H39.7664L39.7824 69.9066Z" fill="#231F20"/>
<path id="Vector_16" d="M42.6631 70.9546V71.1266H41.6631V69.7346H42.6401V69.9066H41.8601V70.3366H42.5541V70.5026H41.8601V70.9506L42.6631 70.9546Z" fill="#231F20"/>
<path id="Vector_17" d="M44.8981 71.1225L44.5981 70.6985H44.1741V71.1225H43.9741V69.7345H44.5141C44.6666 69.7232 44.8178 69.7692 44.9381 69.8635C45.019 69.9419 45.0705 70.0456 45.0839 70.1574C45.0974 70.2692 45.0721 70.3822 45.0121 70.4775C44.9618 70.5586 44.883 70.6178 44.7911 70.6435L45.1171 71.1105L44.8981 71.1225ZM44.8241 70.4535C44.8578 70.4251 44.8843 70.3893 44.9017 70.3489C44.919 70.3084 44.9267 70.2645 44.9241 70.2205C44.9273 70.1774 44.9199 70.1341 44.9024 70.0945C44.885 70.055 44.8581 70.0203 44.8241 69.9935C44.7411 69.9314 44.6386 69.9009 44.5351 69.9075H44.2031V70.5215H44.5351C44.6365 70.5342 44.7392 70.5108 44.8251 70.4555L44.8241 70.4535Z" fill="#231F20"/>
<path id="Vector_18" d="M0 61.5126H1.664C2.03159 61.5065 2.39478 61.5932 2.72 61.7646C3.01885 61.9312 3.2654 62.1778 3.432 62.4766C3.5976 62.8097 3.68378 63.1766 3.68378 63.5486C3.68378 63.9206 3.5976 64.2875 3.432 64.6206C3.26248 64.9157 3.01651 65.1596 2.72 65.3266C2.39478 65.498 2.03159 65.5847 1.664 65.5786H0V61.5126ZM1.621 64.8126C1.78323 64.8195 1.94511 64.7925 2.09629 64.7333C2.24748 64.674 2.38464 64.5839 2.499 64.4686C2.70948 64.2076 2.82426 63.8824 2.82426 63.5471C2.82426 63.2118 2.70948 62.8866 2.499 62.6256C2.38434 62.5111 2.24699 62.4219 2.09577 62.3637C1.94456 62.3055 1.78283 62.2796 1.621 62.2876H0.848V64.8116L1.621 64.8126Z" fill="#231F20"/>
<path id="Vector_19" d="M5.3418 61.5116H6.1898V65.5836H5.3418V61.5116Z" fill="#231F20"/>
<path id="Vector_20" d="M11.5821 61.5116L9.99115 65.5836H9.15615L7.57715 61.5116H8.49215L9.60415 64.4166L10.7371 61.5116H11.5821Z" fill="#231F20"/>
<path id="Vector_21" d="M15.7385 64.8286V65.5836H12.8945V61.5116H15.6645V62.2546H13.7425V63.1386H15.4425V63.8696H13.7425V64.8156L15.7385 64.8286Z" fill="#231F20"/>
<path id="Vector_22" d="M22.6677 61.6906C22.9182 61.7994 23.1315 61.9787 23.2817 62.2066C23.4201 62.4428 23.4894 62.713 23.4817 62.9866C23.4896 63.2621 23.4203 63.5344 23.2817 63.7726C23.1331 64.0006 22.9191 64.1783 22.6677 64.2826C22.3843 64.4068 22.0771 64.4675 21.7677 64.4606H20.9937V65.5846H20.0938V61.5126H21.7677C22.0771 61.5057 22.3843 61.5665 22.6677 61.6906ZM22.3357 63.5336C22.4702 63.3931 22.5453 63.2061 22.5453 63.0116C22.5453 62.8171 22.4702 62.6301 22.3357 62.4896C22.1602 62.3558 21.942 62.2904 21.7217 62.3056H20.9967V63.7186H21.7217C21.9483 63.7202 22.1673 63.6371 22.3357 63.4856V63.5336Z" fill="#231F20"/>
<path id="Vector_23" d="M26.0024 65.3816C25.6851 65.2055 25.4236 64.9439 25.2474 64.6266C25.0611 64.2972 24.9658 63.9241 24.9714 63.5456C24.9657 63.1691 25.061 62.7979 25.2474 62.4706C25.4236 62.1533 25.6851 61.8918 26.0024 61.7156C26.3362 61.5382 26.7084 61.4454 27.0864 61.4454C27.4644 61.4454 27.8367 61.5382 28.1704 61.7156C28.4851 61.8953 28.7458 62.156 28.9254 62.4706C29.1119 62.7979 29.2072 63.1691 29.2014 63.5456C29.2071 63.9241 29.1118 64.2972 28.9254 64.6266C28.7458 64.9413 28.4851 65.202 28.1704 65.3816C27.8367 65.5591 27.4644 65.6519 27.0864 65.6519C26.7084 65.6519 26.3362 65.5591 26.0024 65.3816ZM27.7024 64.7126C27.8888 64.6038 28.0401 64.4438 28.1384 64.2516C28.2446 64.0424 28.2975 63.8102 28.2924 63.5756C28.2974 63.3433 28.2445 63.1134 28.1384 62.9066C28.0405 62.7127 27.8892 62.5507 27.7024 62.4396C27.5158 62.3319 27.304 62.2751 27.0884 62.2751C26.8729 62.2751 26.6611 62.3319 26.4744 62.4396C26.2877 62.5507 26.1364 62.7127 26.0384 62.9066C25.9324 63.1134 25.8795 63.3433 25.8844 63.5756C25.8793 63.8102 25.9322 64.0424 26.0384 64.2516C26.1368 64.4438 26.2881 64.6038 26.4744 64.7126C26.6611 64.8204 26.8729 64.8772 27.0884 64.8772C27.304 64.8772 27.5158 64.8204 27.7024 64.7126Z" fill="#231F20"/>
<path id="Vector_24" d="M31.7031 62.2546H30.4751V61.5116H33.8351V62.2546H32.6061V65.5546H31.7061L31.7031 62.2546Z" fill="#231F20"/>
<path id="Vector_25" d="M37.7395 64.7116H35.9455L35.6135 65.5836H34.6865L36.4125 61.5116H37.2965L39.0225 65.5836H38.0705L37.7395 64.7116ZM37.4565 63.9926L36.8425 62.4386L36.2285 63.9926H37.4565Z" fill="#231F20"/>
<path id="Vector_26" d="M41.1401 62.2546H39.9121V61.5116H43.2781V62.2546H42.0491V65.5546H41.1401V62.2546Z" fill="#231F20"/>
<path id="Vector_27" d="M45.5293 65.3816C45.2147 65.2019 44.954 64.9412 44.7743 64.6266C44.5879 64.2972 44.4927 63.9241 44.4983 63.5456C44.4926 63.1691 44.5879 62.7978 44.7743 62.4706C44.954 62.156 45.2147 61.8953 45.5293 61.7156C45.8628 61.5346 46.2369 61.4417 46.6163 61.4456C46.9939 61.4407 47.3663 61.5338 47.6973 61.7156C48.0119 61.8953 48.2726 62.156 48.4523 62.4706C48.6387 62.7978 48.734 63.1691 48.7283 63.5456C48.7339 63.9241 48.6387 64.2972 48.4523 64.6266C48.2726 64.9412 48.0119 65.2019 47.6973 65.3816C47.3663 65.5634 46.9939 65.6565 46.6163 65.6516C46.2369 65.6556 45.8627 65.5627 45.5293 65.3816ZM47.2363 64.7126C47.4211 64.6036 47.5704 64.4435 47.6663 64.2516C47.7746 64.0429 47.8295 63.8107 47.8263 63.5756C47.8294 63.3428 47.7744 63.1128 47.6663 62.9066C47.5705 62.7131 47.4213 62.551 47.2363 62.4396C47.0496 62.3318 46.8379 62.2751 46.6223 62.2751C46.4067 62.2751 46.195 62.3318 46.0083 62.4396C45.8233 62.551 45.6741 62.7131 45.5783 62.9066C45.4789 63.1046 45.4305 63.3242 45.4373 63.5456C45.4311 63.781 45.4862 64.014 45.5973 64.2216C45.6932 64.4135 45.8425 64.5736 46.0273 64.6826C46.214 64.7904 46.4257 64.8471 46.6413 64.8471C46.8568 64.8471 47.0686 64.7904 47.2553 64.6826L47.2363 64.7126Z" fill="#231F20"/>
<path id="Vector_28" d="M37.7198 40.9943C37.7198 46.8935 32.0034 53.4797 24.3644 53.4797C17.0453 53.4797 11.2859 46.8346 11.022 40.9513V26.4662C11.022 20.436 16.7324 13.6869 24.3774 13.6869C26.631 13.7219 28.8407 14.3157 30.8084 15.4151C32.776 16.5145 34.4401 18.0851 35.6514 19.9861V15.9996C34.1917 14.4608 32.4329 13.2367 30.483 12.4025C28.5331 11.5683 26.4332 11.1415 24.3124 11.1484C22.1916 11.1554 20.0946 11.5958 18.1502 12.4428C16.2058 13.2898 14.455 14.5253 13.0054 16.0736C10.2133 18.8251 8.58998 22.5477 8.47363 26.4662V41.0063C8.78655 48.0934 15.6397 56.0153 24.3464 56.0153C26.466 56.0099 28.5631 55.5813 30.5148 54.7546C32.4666 53.9278 34.2336 52.7197 35.7124 51.201C38.4999 48.5167 40.1301 44.8504 40.2562 40.9823V38.7466C39.5547 39.6442 38.6952 40.4059 37.7198 40.9943Z" fill="#231F20"/>
<path id="Vector_29" d="M20.3923 20.3541C18.8843 20.3892 17.4499 21.0133 16.3961 22.0927C15.3422 23.1721 14.7526 24.6211 14.7534 26.1297C14.7542 27.6384 15.3453 29.0868 16.4003 30.1651C17.4552 31.2434 18.8903 31.8659 20.3983 31.8995H28.7491C30.2131 31.7728 31.581 31.118 32.5978 30.057C33.6146 28.9961 34.211 27.6015 34.2756 26.1333C34.2504 24.652 33.6673 23.2347 32.6427 22.1646C31.6182 21.0946 30.2277 20.4505 28.7491 20.3611L20.3923 20.3541Z" fill="#231F20"/>
<path id="Vector_30" d="M37.6948 0.843658V32.5685C37.702 33.7074 37.3133 34.8135 36.5952 35.6975C35.8772 36.5816 34.8743 37.1886 33.7582 37.4149C32.642 37.6412 31.482 37.4726 30.4764 36.938C29.4708 36.4035 28.6821 35.5361 28.2453 34.4842V34.4292H25.562C26.019 36.1797 27.0969 37.7042 28.5947 38.7186C30.0925 39.733 31.908 40.1681 33.7029 39.9427C35.4977 39.7173 37.1493 38.8468 38.3499 37.4936C39.5504 36.1403 40.218 34.3966 40.2281 32.5875V0.843658H37.6948Z" fill="#231F20"/>
</g>
</svg>
