<svg width="25" height="25" viewBox="0 0 25 25" fill="none" xmlns="http://www.w3.org/2000/svg">
<g id="Item &#226;&#143;&#181; Link" clip-path="url(#clip0_5_16983)">
<path id="Vector" d="M24.4189 22.4543L18.7002 16.7356C18.6064 16.6418 18.4814 16.595 18.3252 16.595H17.6689C18.4189 15.72 19.0049 14.7356 19.4268 13.6418C19.8486 12.5481 20.0596 11.4075 20.0596 10.22C20.0596 8.43872 19.6221 6.80591 18.7471 5.32153C17.8721 3.83716 16.6924 2.65747 15.208 1.78247C13.7236 0.907471 12.0908 0.469971 10.3096 0.469971C8.52832 0.469971 6.89551 0.907471 5.41113 1.78247C3.92676 2.65747 2.74707 3.83716 1.87207 5.32153C0.99707 6.80591 0.55957 8.43872 0.55957 10.22C0.55957 12.0012 0.99707 13.634 1.87207 15.1184C2.74707 16.6028 3.92676 17.7825 5.41113 18.6575C6.89551 19.5325 8.52832 19.97 10.3096 19.97C11.4971 19.97 12.6377 19.759 13.7314 19.3372C14.8252 18.9153 15.8096 18.3293 16.6846 17.5793V18.2356C16.6846 18.3606 16.7314 18.4856 16.8252 18.6106L22.5439 24.2825C22.6377 24.4075 22.7627 24.47 22.9189 24.47C23.0752 24.47 23.2158 24.4075 23.3408 24.2825L24.4189 23.2512C24.5127 23.1262 24.5596 22.9856 24.5596 22.8293C24.5596 22.6731 24.5127 22.5481 24.4189 22.4543ZM10.3096 17.72C8.96582 17.72 7.71582 17.384 6.55957 16.7122C5.40332 16.0403 4.48926 15.1262 3.81738 13.97C3.14551 12.8137 2.80957 11.5637 2.80957 10.22C2.80957 8.87622 3.14551 7.62622 3.81738 6.46997C4.48926 5.31372 5.40332 4.39966 6.55957 3.72778C7.71582 3.05591 8.96582 2.71997 10.3096 2.71997C11.6533 2.71997 12.9033 3.05591 14.0596 3.72778C15.2158 4.39966 16.1299 5.31372 16.8018 6.46997C17.4736 7.62622 17.8096 8.87622 17.8096 10.22C17.8096 11.5637 17.4736 12.8137 16.8018 13.97C16.1299 15.1262 15.2158 16.0403 14.0596 16.7122C12.9033 17.384 11.6533 17.72 10.3096 17.72Z" fill="black"/>
</g>
<defs>
<clipPath id="clip0_5_16983">
<rect width="24" height="24" fill="white" transform="matrix(1 0 0 -1 0.55957 24.47)"/>
</clipPath>
</defs>
</svg>
